<svg xmlns="http://www.w3.org/2000/svg" viewBox="0 0 500 500" enable-background="new 0 0 500 500"><path fill="#E64C3B" d="M.2-.4h499.8v499.8h-499.8z"/><path fill="#fff" d="M152.9 316.1v-38.1l-14.2 38.1h-8.6l-14.1-38.1v38.1h-19.2v-63.4h26.5l11.1 30.4 11.1-30.4h26.5v63.4h-19.1zM182.4 316.1v-63.4h19.2v63.4h-19.2zM254.4 316.1l-23.4-32.1v32.1h-19.2v-63.4h19.8l22 30v-30h19.2v63.4h-18.4zM325.6 316.1l-2.3-7.4h-22.8l-2.3 7.4h-21.8l23.4-63.4h24.2l23.4 63.4h-21.8zm-13.7-44.6l-6.3 20.4h12.5l-6.2-20.4zM349.3 307.2l10-14.3c4.8 4.6 11.9 8.2 20.4 8.2 3.6 0 7-1 7-3.4 0-6.1-35.4.1-35.4-24.9 0-10.7 8.9-21 26.3-21 10.4 0 19.7 2.9 26.9 8.8l-10.3 13.6c-5.5-4.2-12.6-6.3-18.6-6.3-3.8 0-4.8 1.2-4.8 2.9 0 6 35.3.9 35.3 24.4 0 14-10.4 22.1-27.4 22.1-13.4 0-22.6-4-29.4-10.1zM94.5 404.6v-63.4h28.3c20 0 34.8 11.4 34.8 31.7 0 20.2-14.8 31.7-34.7 31.7h-28.4zm43.6-31.8c0-8.6-4.9-14.9-15.2-14.9h-9.2v29.9h9.1c9.6.1 15.3-7 15.3-15zM164.4 404.6v-63.4h48.1v16.7h-28.9v6.3h28.2v16.7h-28.2v6.9h28.9v16.7h-48.1zM241.2 404.6l-23.4-63.4h21.8l13.7 42.7 13.7-42.7h21.8l-23.4 63.4h-24.2zM97.5 165.2v-71.5h14.3v3.5h-10.7v64.5h10.7v3.5h-14.3zM115.9 147.8c0-1.1 1-2.1 2.1-2.1s2.1 1 2.1 2.1-1 2.1-2.1 2.1-2.1-1-2.1-2.1zM123 142.3c0-4.2 2.8-7.6 7.4-7.6 4.6 0 7.4 3.4 7.4 7.6 0 4.1-2.8 7.6-7.4 7.6-4.6 0-7.4-3.4-7.4-7.6zm11.6 0c0-2.5-1.5-4.8-4.2-4.8s-4.2 2.2-4.2 4.8c0 2.6 1.5 4.8 4.2 4.8 2.8 0 4.2-2.2 4.2-4.8zM141.5 149.6v-14.5h3.1v2.1c1.1-1.4 2.8-2.5 4.7-2.5v3.1c-.3-.1-.6-.1-1-.1-1.3 0-3.1.9-3.7 1.9v9.9h-3.1zM152 153.3l1.5-2.3c1.2 1.3 2.7 1.9 4.6 1.9 2.1 0 4.3-1 4.3-4v-1.6c-1.1 1.5-2.8 2.4-4.6 2.4-3.7 0-6.4-2.7-6.4-7.4s2.7-7.4 6.4-7.4c1.8 0 3.5.8 4.6 2.4v-2h3.1v13.7c0 5.2-3.9 6.6-7.4 6.6-2.4-.1-4.3-.7-6.1-2.3zm10.4-8.4v-5.4c-.7-1-2.2-1.9-3.7-1.9-2.5 0-4.1 1.9-4.1 4.6 0 2.8 1.6 4.6 4.1 4.6 1.5 0 3-.9 3.7-1.9zM169.4 165.2v-3.5h10.7v-64.5h-10.7v-3.5h14.3v71.6h-14.3z"/></svg>