<svg xmlns="http://www.w3.org/2000/svg" viewBox="0 0 412.4 306" enable-background="new 0 0 412.4 306"><g fill="#FEBA02"><path d="M248.5 171.9l-3.6.5-2.2 12.2 3.6-.5c3.8-.5 6.5-3.7 7.1-7 .6-3.4-.9-5.7-4.9-5.2zM185.8 189.7l4.9-.7-.9-8zM84.4 169.1l-11.2 63.2 257.9-36.2 5.8-31.6 5.4-31.6-257.9 36.2zm40 38.9l2.8-15.6-8.3 16.4-3.3.5-2.8-14.8-2.8 15.5-7.5 1.1 4.6-25.9 10.4-1.5 2.2 11.8 6.5-13 10.4-1.5-4.6 25.9-7.6 1.1zm11.5-1.7l4.6-25.9 7.5-1.1-4.6 25.9-7.5 1.1zm28.2-3.9l-6.8-11.9-2.3 13.1-7.5 1.1 4.6-25.9 7.7-1.1 6.5 11.1 2.2-12.3 7.5-1.1-4.6 25.9-7.3 1.1zm27.8-3.9l-.4-2.9-8.9 1.3-1.4 3.2-8.5 1.2 13.7-27.2 9.4-1.3 4.6 24.6-8.5 1.1zm31.7-12.8c-1 5.7-5.6 9.6-12.3 10.5-5.3.7-8.6-.4-10.8-2.5l4.9-6.4c1.5 1.6 4.1 2.7 7.4 2.2 1.4-.2 2.8-.8 3-1.8.4-2.5-13.8 2-12-8.2.8-4.4 5-9.1 11.8-10 4.1-.6 7.5.1 9.9 2.1l-5 6.1c-1.9-1.4-4.5-1.9-6.8-1.5-1.5.2-2 .8-2.1 1.4-.5 2.5 13.7-1.5 12 8.1zm37.4-9.6c-1.5 8.3-8.1 13.8-15.9 14.9l-11.1 1.6 4.6-25.9 11.1-1.6c7.8-1.1 12.8 2.8 11.3 11zm22.6-9.1l-11.3 1.6-.5 2.6 11-1.5-1.2 6.8-11 1.5-.5 2.8 11.3-1.6-1.2 6.8-18.8 2.6 4.6-25.9 18.8-2.6-1.2 6.9zm15.9 16.4l-9.4 1.3-4.6-24.6 8.5-1.2 2.3 16.7 8.4-18.2 8.5-1.2-13.7 27.2z"/></g><g fill="#FEBA02"><path d="M181.6 238.5c-.6 3.5-2.7 5.6-6.2 6.5v.2c1.8-.2 3.1.1 4 1s1.1 2.2.8 4.1c-.1.8-.4 1.6-.7 2.3-.3.8-.8 1.5-1.5 2.2s-1.6 1.3-2.8 1.8-2.7.9-4.6 1.2l-17.2 2.4 1.1-6.1c.9-.1 1.6-.3 2-.7.4-.3.7-.8.8-1.5l1.5-8.3c.1-.7 0-1.2-.3-1.4-.4-.2-1-.2-1.9-.1l1.1-6.1 18.3-2.6c1.4-.2 2.6-.2 3.4 0 .8.2 1.4.6 1.8 1.1s.6 1.1.6 1.8-.1 1.4-.2 2.2zm-13 13.6c.9-.1 1.5-.4 1.9-.8.4-.4.7-1 .8-1.8.1-.8.1-1.4-.2-1.7-.3-.3-.8-.4-1.7-.3l-2.3.3-.8 4.7 2.3-.4zm-1-7.3l2.4-.3c.6-.1 1.2-.4 1.5-.8.4-.5.6-1 .7-1.6.1-.6 0-1.1-.2-1.5-.2-.4-.6-.5-1.3-.5l-2.4.3-.7 4.4zM198.8 247.8c.4-.1.8-.1 1.1-.3.3-.1.6-.3.8-.5.2-.2.4-.5.5-.9.1-.4.2-.9.3-1.4l5.5-.8-1.6 8.9-22.3 3.1 1.1-6.1c.9-.1 1.6-.3 2-.7.4-.3.7-.8.8-1.5l1.5-8.3c.1-.7 0-1.2-.3-1.4-.4-.2-1-.2-1.9-.1l1.1-6.1 22.3-3.1-1.6 8.9-5.5.8c.1-.6.2-1 .2-1.4 0-.4-.1-.6-.2-.8-.1-.2-.3-.3-.6-.3h-1l-2.8.4-.8 4.3 5-.7-.5 2.9-5 .7-.8 4.7 2.7-.3zM225.2 244.1c.4-.1.8-.1 1.1-.3.3-.1.6-.3.8-.5.2-.2.4-.5.5-.9.1-.4.2-.9.3-1.4l5.5-.8-1.6 8.9-22.3 3.1 1.1-6.1c.9-.1 1.6-.3 2-.7.4-.3.7-.8.8-1.5l1.5-8.3c.1-.7 0-1.2-.3-1.4-.4-.2-1-.2-1.9-.1l1.1-6.1 22.3-3.1-1.6 8.9-5.5.8c.1-.6.2-1 .2-1.4 0-.4-.1-.6-.2-.8-.1-.2-.3-.3-.6-.3h-1l-2.8.4-.8 4.3 5-.7-.5 2.9-5 .7-.8 4.7 2.7-.3zM235.9 248.5l1.1-6.1c.9-.1 1.6-.3 2-.7.4-.3.7-.8.8-1.5l1.5-8.3c.1-.7 0-1.2-.3-1.4-.4-.2-1-.2-1.9-.1l1.1-6.1 16.6-2.3c1.5-.2 2.8-.2 3.8-.1 1 .2 1.8.5 2.3 1 .5.5.9 1.1 1 1.9.1.8.1 1.7-.1 2.7-.3 1.8-1 3.4-2 4.6-1 1.2-2.5 2-4.4 2.3v.2c.9-.1 1.6 0 2.1.2s.9.5 1.2.9c.3.4.4.9.4 1.5s0 1.3-.2 2.1l-.2.9c0 .3 0 .5.1.7.1.2.3.3.6.2.3 0 .5-.2.7-.4.2-.2.3-.5.3-.7l.7-4.2 1.8-.3-.7 4.2c-.1.8-.4 1.5-.7 2.2-.3.7-.8 1.3-1.4 1.9-.6.6-1.3 1-2.2 1.4-.9.4-1.9.7-3.2.8-1.2.2-2.2.2-2.9 0-.7-.2-1.3-.5-1.6-.9s-.6-1-.6-1.6c-.1-.6 0-1.3.1-2l.2-1.3c.2-.9.2-1.6.2-2.1s-.1-.9-.2-1.2c-.2-.3-.4-.4-.7-.5-.3-.1-.7 0-1.2 0l-.4.1-.4 2.3c-.1.6 0 1 .2 1.2.3.2.8.3 1.6.2l-1.1 6.1-14 2.2zm14.1-14.6l1.4-.2c.9-.1 1.5-.4 1.9-.9.4-.5.7-1.1.8-1.9.2-.9.1-1.6-.1-1.9-.3-.4-.8-.5-1.7-.4l-1.4.2-.9 5.1z"/></g><path fill="#FEBA02" d="M123.4 290.5c2.5 2 6.8 4.1 14 3.4 10.9-1.1 18.2-6.4 25.3-11.5l2.2-1.6.3 3.2c.1 1.3.1 2.5.1 3.5-1 1.3-1.2 2.3-1.2 2.7 0 .3.2.5.4.5s.4 0 .5-.2c.4-.4.7-1.4.8-2.8 1.1-1.4 3.1-3.2 6.7-5.4 6.3-3.7 12.7-4.4 12.7-4.3.2 0 .3-.2.3-.4s-.2-.3-.4-.3c-.1 0-6.6.7-13 4.4-3.1 1.8-5.1 3.5-6.3 4.8 0-.8 0-1.8-.1-2.7l-.4-3.6c5.9-4.2 11.9-7.8 20.3-8.7 15.4-1.6 19.3 5.6 20.2 10.7l-2 .2c-1 .1-.9 1.1-.9 1.6.1.9.7 1.2 1.2 1.2l1.9-.2c-.1 5.5-3.6 9.2-9.5 9.8-6.2.6-10.5-3.7-10.9-8.1-.5-4.6 2.8-8 6.2-8.4 1.1-.1 2.1.2 2.9.6 1.1.6 1.9 1.7 2 2.9.3 1.8-.6 3.5-2.1 3.8-3.2.6-1.9-2.8-2.5-3.2-.5-.3-2.9 2.6-1 5.5 1 1.5 2.9 2.1 4.8 1.5 1.8-.6 3.6-2.3 3.3-5.5-.5-5.1-4.3-6-6.2-6.1-.4-.1-.9-.1-1.4 0-3.7.4-7.3 4.1-6.8 9.1.5 4.7 5.1 9.3 11.7 8.7 6.2-.6 10-4.7 10.1-10.5l1.6-.2.2 2.3c-.2 9.5-8.1 10.4-8.4 10.4l-.7.1.5.5c.1.1 1.4 1.5 4.6 1.2 1-.1 1.9-.4 2.6-.9-.3 2.2.6 3.2 1.1 3.8.4.5.8.8 1.1 1.1.6.6 1 .9 1 1.5.1.6.1 1.1.6 1 .4 0 .4-.6.3-1.1-.1-.6.2-1 .7-1.7.3-.4.5-.8.9-1.3.4-.7 1-1.9.3-4 .8.3 1.8.4 2.8.3 3.2-.3 4.2-2 4.3-2.1l.4-.6-.7.1c-.3 0-8.2.7-10.3-8.5l-.2-2.4 1.4-.1c1.3 5.7 5.8 8.9 12 8.3 6.6-.7 10.2-6.1 9.7-10.8-.5-5-4.8-7.9-8.5-7.6-.5 0-.9.1-1.3.3-1.8.5-5.4 2.1-4.8 7.2.4 3.2 2.4 4.5 4.3 4.8 1.9.2 3.7-.7 4.4-2.4 1.3-3.2-1.6-5.6-2.1-5.2-.5.5 1.4 3.6-1.8 3.7-1.5 0-2.7-1.5-2.8-3.3-.1-1.3.5-2.5 1.4-3.3.7-.6 1.6-1 2.8-1.1 3.4-.3 7.3 2.4 7.8 7 .4 4.4-2.9 9.5-9.1 10.1-5.9.6-10.1-2.3-11.3-7.7l1.9-.2c.5-.1 1-.4 1-1.4 0-.5-.2-1.5-1.2-1.4l-2 .2c-.2-5.2 2.3-12.9 17.6-14.5 8.4-.8 15 1.5 21.6 4.4l.4 3.6c.1.9.2 1.8.4 2.6-1.5-1.1-3.7-2.3-7.1-3.5-7-2.4-13.5-1.8-13.6-1.7-.2 0-.3.2-.3.4s.2.3.4.3c0 0 6.4-.7 13.3 1.7 4 1.4 6.3 2.8 7.6 3.9.4 1.3.9 2.3 1.4 2.6.2.1.4.1.6 0 .2-.1.3-.3.3-.6 0-.4-.4-1.3-1.7-2.4-.3-.9-.5-2.1-.6-3.4l-.3-3.2 2.5 1.1c7.9 3.6 16.1 7.3 27 6.2 7.2-.7 11.1-3.6 13.1-6.1 1.8-2 3.1-5.3 2.8-8.1-.4-3.2-2.9-5.3-5.4-5-3.1.4-4.2 2.5-4.1 4.4.1 1.9.9 2.9 1.4 2.9.5-.1-.4-2.8 2.2-3.4 1.8-.4 3.8.2 4.3 3.4.4 2.5-1.3 4.8-1.8 5.5-1.9 2.4-5.6 5.1-12.6 5.8-10.8 1.1-18.9-2.6-26.7-6.1-.9-.4-1.9-.9-2.9-1.3l-.6-5.8c.4.2 1 .5 1.6.7 2.6 1.2 7.1 3.3 11.7 4.8 5.5 1.8 9.6 2.1 12.2.9.6-.2 1.7-.7 1.6-1.7-.2-1.5-2.5-1.4-2.8-.3-.3.9.3 1.4.6 1.5-2.5.9-6.3.5-11.3-1.1-4.6-1.5-9-3.5-11.6-4.8-1.7-.8-2.1-1-2.3-1l-.2.1-.2.1.6 6.1c-6.5-2.8-13.3-5.2-21.6-4.3-16.4 1.7-18.4 10.5-18.2 15.2l-1.5.2-.6-6c1-.3 1.7-1.3 1.6-2.4-.1-1.1-1-1.9-2.1-2l-.3-3.3c0-.2-.2-.3-.4-.3s-.3.2-.3.4l.3 3.3c-1.1.3-1.8 1.3-1.7 2.4.1 1.1 1 2 2.1 2l.6 6-1.7.2c-.8-4.7-4.6-12.9-20.9-11.3-8.3.8-14.6 4.5-20.3 8.6l-.6-5.9v-.2l-.2-.1h-.2c-.2 0-.6.3-2.1 1.4-2.3 1.7-6.2 4.6-10.4 7-4.6 2.6-8.3 3.7-10.9 3.4.2-.2.7-.8.2-1.6-.6-1-2.8-.6-2.7.9.1 1 1.3 1.3 1.9 1.3 2.8.6 6.7-.5 11.8-3.4 4.2-2.4 8.1-5.3 10.5-7 .6-.4 1.1-.8 1.4-1.1l.6 5.8c-.9.6-1.7 1.2-2.5 1.8-7 5.1-14.2 10.3-24.9 11.4-6.9.7-11.1-1.2-13.5-3.2-.6-.5-2.8-2.5-2.9-5-.1-3.2 1.7-4.3 3.6-4.2 2.7.1 2.4 2.9 2.9 2.9.5-.1 1.1-1.2.8-3.1-.3-1.8-1.9-3.7-4.9-3.5-2.5.2-4.5 2.8-4.3 6 .4 2.9 2.4 5.8 4.6 7.5zm75.2-6.2c.2 0 .4.2.4.4-.1 1.1-1 3.9-4 4.2h-.1c-3.1.3-3.7-3.1-3.5-3.1.2 0 1 2.7 3.5 2.4h.1c2.6-.3 3.3-2.6 3.4-3.5-.1-.3.1-.4.2-.4zm13.8 17.2c-.3.5-.6.9-.8 1.3-.3.4-.5.8-.7 1.2-.2-.3-.5-.7-.9-1l-1.1-1.1c-.5-.6-1.3-1.6-.9-3.9.9-.7 1.6-1.7 2-2.5.5.7 1.4 1.5 2.4 2 1 2.2.4 3.4 0 4zm6.9-5.2l-.3.3c-1.6.5-5.5 1.2-9-2.7l-.1-.2-.1.2c-2.7 4.5-6.6 4.6-8.3 4.4l-.4-.2c2.1-.5 7.5-2.5 8.2-9.9 2.1 7.2 7.9 8.1 10 8.1zm4-11c2.5-.3 2.7-3.1 2.9-3.1.2 0 .2 3.4-2.8 3.8h-.1c-3 .3-4.5-2.3-4.8-3.3 0-.2.1-.4.2-.4h.1c.2 0 .3.1.4.2.2.9 1.5 3.1 4.1 2.8zm68.1-23.4c-2.7.3-3 1.8-3 1.8 0 .2-.2.4-.4.3-.2 0-.4-.2-.3-.4 0-.1.4-2.1 3.7-2.5 3.1-.3 4.5 3.4 4.3 3.5-.3.1-1.8-2.9-4.3-2.7zm-82 11.8c.1.7-.4 1.4-1 1.6l-.3-3c.7.1 1.3.7 1.3 1.4zm-3.1.3c-.1-.8.4-1.4 1.1-1.6l.3 3c-.7-.1-1.3-.6-1.4-1.4zm7.4 9c.1.6-.2.6-.3.6l-9.2.9c-.1 0-.4 0-.5-.5-.1-.8 0-.8.3-.8l9.2-.9c.3-.1.5 0 .5.7zm-90.3-4.9c3.4-.3 4.1 1.6 4.1 1.7.1.2 0 .4-.2.5-.2.1-.4 0-.5-.2 0-.1-.6-1.5-3.3-1.2-2.5.3-3.4 3.6-3.6 3.5-.2 0 .5-3.9 3.5-4.3zM69.3 236.2l8.1-46.1-66.2 9.3 19.5 30-30.7 33.2 82.6-11.5 3.2-17.2zM412.4 103l-82.7 11.6-3.1 17 19.8-2.7-5.4 31.5-2.7 14.6 62.9-8.8-20.3-26.1zM259 99c-.8 0-1.7-.1-2.5-.3l-.4-.1-.2.4c-1 1.9-2.8 3.4-5 4.1l-.4.1v.8c0 4.6-4 8.3-8.9 8.3-1.1 0-2.2-.2-3.2-.6l-.4-.1-.3.3c-2.4 2.5-5.8 3.9-9.3 3.9-3.4 0-6.5-1.2-8.9-3.4l-.3-.3-.4.1c-.5.2-1.1.4-1.7.5v33.2l43.6-6v-41c-.5.1-1.1.1-1.7.1z"/><g fill="#FEBA02"><path d="M112.2 95.2c1.6-1.4 3.5-2.4 5.2-3.7 2.4-1.8 3.7-4.2 4.1-6.7.2-1 .2-2 .1-3-.4.3-.8.6-1.3.9-3.2 2.4-7 5.1-9.8 6.7-.8-1.4-1.7-2.6-2.7-3.9-.8-.9-1.7-1.7-2.5-2.5-1.3-1.2-2.6-2.2-3.6-3.7l-.2-.2c.1 2 1.1 4 1.2 6.2.8 5 2.6 10.1 7.3 12.5.5-.9 1.3-1.8 2.2-2.6zM119 80.3c.9-.9 1.6-1.8 2.1-2.9.2-.3.3-.5.4-.8.8-2.7 1.2-6.4-.2-8.8l-3.5 3.7-2.4 2.5-2.5 2.6c-2-5.3-5.4-9.4-9.4-13.3l-.2-.2c1.4 8.6.8 17.1 8.7 23 2.3-2 4.9-3.8 7-5.8zM116.7 69.4c1.3-1.9 2.1-4 2.1-6.5.1-2.5-.5-5.3-.9-7.9-.3-1.6-.6-3.1-.7-4.6-.5.3-.9.7-1.2 1-2.4 2.3-3.2 5.4-4.4 8.6 0 .1 0 .1-.1.2-.3 1.8-.3 4.1 0 6.3.3 2.5 1 5 2.2 7l1.1-1.3c.5-.8 1.2-1.8 1.9-2.8zM110.9 114.5c.5-4 4.1-6.6 5.9-10.1.1-.1.2-.3.2-.5 1.3-2.8 1.8-6 .7-9.1-1.4.8-2.8 2-4 3.2-2 1.9-3.8 4-5.2 5.1-1.5-3.9-5.8-5.9-8.2-9l-.3-.1c.3 1.5.5 2.9.7 4.5.4 2.6.9 5.3 1.8 8 1.4 3.2 4.1 6.3 7 7.5.5.2 1 .4 1.4.5zM133.5 156.6c.7.2 1.5.3 2.4.3.2-7.2.9-15.6-5.1-21.8l-.2.1c.6 4.8-.9 9.5-1.3 13.9l-.1.9-13.3-4.1c2.3 3.9 6.3 7.7 11 9 2.5.4 4.3 1.2 6.6 1.7zM126.9 146.6c.1-.5.1-1 .1-1.4.7-7.6.3-16.1-4.8-23.3l-.2-.1s-.1.3.1.6c-.6 3.6-1.6 7.6-1.7 11.3 0 1 0 2.1.2 3.1-3.8-2.5-8.1-2.4-11.8-4.4 0 .5.4.7.4 1.4 3.7 7.4 10.2 10.9 17.7 12.8zM117.6 131.5c-.3-1.2-.3-2.4-.3-3.5.1-1.6.5-3.1.9-4.8 1.4-5.5 2.5-9.7 1.2-15-.1-.3-.2-.6-.2-.8l-.1.2c-3.1 3.7-5.8 7.5-6.7 11.6l-.2 1.2-8.9-5.3c.9 2.9 2 5.5 3.2 8.5 2.2 4.9 6.5 7.2 11.1 7.9z"/></g><path stroke="#FEBA02" stroke-miterlimit="10" d="M108.2 59.1s-6.5-15.4 3.5-29.8M116.7 50.1s5.8-15.4-3.1-29.8M100.5 78s-6.5-15.4 3.5-29.8M100.5 92.9s-6.5-15.4 3.5-29.8M119.1 71.1s9.6-13.3 5.2-29.5M122.2 85.8s9.6-13.3 5.2-29.5M118.5 99.1s9.6-13.3 5.2-29.5" fill="none"/><g fill="#FEBA02"><path d="M309.1 73.3c-1.6-1.4-3.5-2.4-5.2-3.7-2.4-1.8-3.7-4.2-4.1-6.7-.2-1-.2-2-.1-3 .4.3.8.6 1.3.9 3.2 2.4 7 5.1 9.8 6.7.8-1.4 1.7-2.6 2.7-3.9.8-.9 1.7-1.7 2.5-2.5 1.3-1.2 2.6-2.2 3.6-3.7l.2-.2c-.1 2-1.1 4-1.2 6.2-.8 5-2.6 10.1-7.3 12.5-.5-1-1.3-1.8-2.2-2.6zM302.3 58.3c-.9-.9-1.6-1.8-2.1-2.9-.2-.3-.3-.5-.4-.8-.8-2.7-1.2-6.4.2-8.8l3.5 3.7 2.4 2.5 2.5 2.6c2-5.3 5.4-9.4 9.4-13.3l.2-.2c-1.4 8.6-.8 17.1-8.7 23-2.3-1.9-5-3.7-7-5.8zM304.6 47.5c-1.3-1.9-2.1-4-2.1-6.5-.1-2.5.5-5.3.9-7.9.3-1.6.6-3.1.7-4.6.5.3.9.7 1.2 1 2.4 2.3 3.2 5.4 4.4 8.6 0 .1 0 .1.1.2.3 1.8.3 4.1 0 6.3-.3 2.5-1 5-2.2 7l-1.1-1.3c-.5-.8-1.3-1.8-1.9-2.8zM310.3 92.5c-.5-4-4.1-6.6-5.9-10.1-.1-.1-.2-.3-.2-.5-1.3-2.8-1.8-6-.7-9.1 1.4.8 2.8 2 4 3.2 2 1.9 3.8 4 5.2 5.1 1.5-3.9 5.8-5.9 8.2-9l.3-.1c-.3 1.5-.5 2.9-.7 4.5-.4 2.6-.9 5.3-1.8 8-1.4 3.2-4.1 6.3-7 7.5-.4.3-.9.4-1.4.5zM287.7 134.7c-.7.2-1.5.3-2.4.3-.2-7.2-.9-15.6 5.1-21.8l.2.1c-.6 4.8.9 9.5 1.3 13.9l.1.9 13.3-4.1c-2.3 3.9-6.3 7.7-11 9-2.4.4-4.3 1.2-6.6 1.7zM294.3 124.6c-.1-.5-.1-1-.1-1.4-.7-7.6-.3-16.1 4.8-23.3l.2-.1s.1.3-.1.6c.6 3.6 1.6 7.6 1.7 11.3 0 1 0 2.1-.2 3.1 3.8-2.5 8.1-2.4 11.8-4.4 0 .5-.4.7-.4 1.4-3.6 7.5-10.2 11-17.7 12.8zM303.6 109.6c.3-1.2.3-2.4.3-3.5-.1-1.6-.5-3.1-.9-4.8-1.4-5.5-2.5-9.7-1.2-15 .1-.3.2-.6.2-.8l.1.2c3.1 3.7 5.8 7.5 6.7 11.6l.2 1.2 9-5.5c-.9 2.9-2 5.5-3.2 8.5-2.2 5.1-6.5 7.4-11.2 8.1z"/></g><path stroke="#FEBA02" stroke-miterlimit="10" d="M313.1 37.2s6.5-15.4-3.5-29.8M303.1 28.8s-4.6-15.4 2.5-29.8M320.8 56.1s6.5-15.4-3.5-29.8M320.8 71s6.5-15.4-3.5-29.8M302.2 49.1s-9.6-13.3-5.2-29.5M299 63.9s-9.6-13.3-5.2-29.5M302.8 77.1s-9.6-13.3-5.2-29.5" fill="none"/><path fill="#FEBA02" d="M156.1 90.5v.6c0 6.5 5.3 11.8 11.8 11.8 1.5 0 3-.3 4.4-.9l.3-.1.3.3c2.2 2.2 5.2 3.4 8.3 3.4 3.3 0 6.5-1.4 8.7-3.9l.2-.3.3.1c1 .4 2 .6 3 .6 4.6 0 8.3-3.7 8.3-8.3v-.8l.4-.1c2-.7 3.7-2.2 4.7-4.1l.2-.4.4.1c.8.2 1.6.3 2.4.3 5.6 0 10.2-4.6 10.2-10.2 0-1.3-.2-2.5-.7-3.7l-.2-.4.4-.2c3.6-2.1 5.8-6 5.8-10.1 0-6.5-5.3-11.7-11.7-11.7-2.4 0-4.6.7-6.6 2l-.5.3-.3-.5c-2.5-4.7-7.4-7.6-12.7-7.6-6.1 0-11.6 3.9-13.7 9.7l-.2.6-.6-.3c-2.2-1.3-4.7-1.9-7.3-1.9-8 0-14.5 6.5-14.5 14.5v.5h-.5c-5.7 0-10.4 4.8-10.4 10.5 0 5.3 4 9.8 9.3 10.4l.5-.2zm34.4-2.1c-3.2 2-4.8 6.6-2.8 9.8-2.2-3.5-1.2-8.2 2.4-10.5 3.5-2.2 8.2-1.2 10.5 2.4-2.1-3.1-6.9-3.7-10.1-1.7zm14.8-18.8c4.1-2.5 9.4-1.2 11.9 2.9-2.2-3.7-7.8-4.3-11.5-2.1-3.7 2.2-5.6 7.5-3.3 11.2-2.5-4.2-1.2-9.5 2.9-12zM212.4 90.3c-.8 0-1.7-.1-2.6-.3l-.4-.1-.2.4c-1 2.1-2.8 3.7-5 4.5l-.4.1v1c0 4.9-4 9-9 9-1.1 0-2.2-.2-3.2-.6l-.4-.1-.3.3c-2.4 2.6-5.8 4.1-9.3 4.1-3.4 0-6.6-1.3-8.9-3.7l-.3-.3-.4.1c-1.5.6-3.1.9-4.7.9-7 0-12.6-5.7-12.6-12.6v-.6l-.5-.1c-.1 0-.3 0-.4-.1v63.1l60.8-9v-56.300000000000004c-.8.2-1.5.3-2.2.3zM271.8 73.6c-.1-6-5.4-10.7-11.8-10.6-2.3.1-4.6.7-6.4 2l-.5.3-.3-.5c-2.6-4.3-7.5-6.8-12.7-6.7-6 .1-11.4 3.8-13.3 9.2l-.2.6-.3-.2c-.9 2.9-2.7 5.4-5.3 7l-.4.3.2.4c.5 1.2.8 2.5.8 3.9.1 3.8-1.8 7.1-4.7 9.1l.5 22.2c1-.1 2-.4 2.9-.8l.3-.1.3.2c2.2 2 5.2 3.1 8.3 3 3.3-.1 6.3-1.4 8.5-3.8l.2-.3.3.1c1 .3 2 .5 3 .5 4.5-.1 8.2-3.6 8.1-7.9v-.8l.4-.1c2-.7 3.6-2.1 4.5-3.9l.2-.4.4.1c.8.2 1.6.2 2.4.2 5.5-.1 9.9-4.4 9.8-9.6 0-1.2-.3-2.3-.8-3.4l-.2-.4.4-.2c3.4-2 5.5-5.6 5.4-9.4zm-33.8 23.3c-3.1 1.9-4.6 6.2-2.5 9.1-2.3-3.2-1.3-7.6 2.1-9.7 3.4-2.1 8.1-1.3 10.4 1.9-2.1-2.8-6.9-3.2-10-1.3zm14.6-17c-3.6 2.1-5.4 7.1-3.1 10.4-2.5-3.7-1.4-8.7 2.6-11.1 4-2.4 9.3-1.3 11.8 2.4-2.2-3.3-7.7-3.9-11.3-1.7z"/><path stroke="#FEBA02" stroke-width="6" stroke-miterlimit="10" d="M262.9 107.2c5.5 0 10-1.7 10 10 0 10.6-4.5 10-10 10M152.4 107.5c-6.7 0-12.2 0-12.2 12.2 0 14.2 5.4 12.2 12.2 12.2" fill="none"/></svg>