<?xml version="1.0" encoding="utf-8"?>
<!DOCTYPE svg PUBLIC "-//W3C//DTD SVG 1.1//EN" "http://www.w3.org/Graphics/SVG/1.1/DTD/svg11.dtd">
<svg version="1.1" xmlns="http://www.w3.org/2000/svg" xmlns:xlink="http://www.w3.org/1999/xlink" width="416" height="448" viewBox="0 0 416 448">
<path fill="#fff" d="M160 304c0 18.25-9.5 48-32 48s-32-29.75-32-48 9.5-48 32-48 32 29.75 32 48zM320 304c0 18.25-9.5 48-32 48s-32-29.75-32-48 9.5-48 32-48 32 29.75 32 48zM360 304c0-38.25-23.25-72-64-72-16.5 0-32.25 3-48.75 5.25-13 2-26 2.75-39.25 2.75s-26.25-0.75-39.25-2.75c-16.25-2.25-32.25-5.25-48.75-5.25-40.75 0-64 33.75-64 72 0 76.5 70 88.25 131 88.25h42c61 0 131-11.75 131-88.25zM416 260c0 27.75-2.75 57.25-15.25 82.75-33 66.75-123.75 73.25-188.75 73.25-66 0-162.25-5.75-196.5-73.25-12.75-25.25-15.5-55-15.5-82.75 0-36.5 10-71 34-99-4.5-13.75-6.75-28.25-6.75-42.5 0-18.75 4.25-37.5 12.75-54.5 39.5 0 64.75 17.25 94.75 40.75 25.25-6 51.25-8.75 77.25-8.75 23.5 0 47.25 2.5 70 8 29.75-23.25 55-40 94-40 8.5 17 12.75 35.75 12.75 54.5 0 14.25-2.25 28.5-6.75 42 24 28.25 34 63 34 99.5z"></path>
</svg>
