<svg style="position: absolute; width: 0; height: 0; overflow: hidden;" version="1.1"
  xmlns="http://www.w3.org/2000/svg"
  xmlns:xlink="http://www.w3.org/1999/xlink">
  <defs>
    <symbol id="github" viewBox="0 0 416 448">
      <path d="M160 304c0 18.25-9.5 48-32 48s-32-29.75-32-48 9.5-48 32-48 32 29.75 32 48zM320 304c0 18.25-9.5 48-32 48s-32-29.75-32-48 9.5-48 32-48 32 29.75 32 48zM360 304c0-38.25-23.25-72-64-72-16.5 0-32.25 3-48.75 5.25-13 2-26 2.75-39.25 2.75s-26.25-0.75-39.25-2.75c-16.25-2.25-32.25-5.25-48.75-5.25-40.75 0-64 33.75-64 72 0 76.5 70 88.25 131 88.25h42c61 0 131-11.75 131-88.25zM416 260c0 27.75-2.75 57.25-15.25 82.75-33 66.75-123.75 73.25-188.75 73.25-66 0-162.25-5.75-196.5-73.25-12.75-25.25-15.5-55-15.5-82.75 0-36.5 10-71 34-99-4.5-13.75-6.75-28.25-6.75-42.5 0-18.75 4.25-37.5 12.75-54.5 39.5 0 64.75 17.25 94.75 40.75 25.25-6 51.25-8.75 77.25-8.75 23.5 0 47.25 2.5 70 8 29.75-23.25 55-40 94-40 8.5 17 12.75 35.75 12.75 54.5 0 14.25-2.25 28.5-6.75 42 24 28.25 34 63 34 99.5z"></path>
    </symbol>
    <symbol id="twitter" viewBox="0 0 512 512">
      <path d="M512 113.2c-18.8 8.4-39.1 14-60.3 16.5 21.7-13 38.3-33.6 46.2-58.1-20.3 12-42.8 20.8-66.7 25.5-19.2-20.4-46.5-33.1-76.7-33.1-58 0-105 47-105 105 0 8.2 0.9 16.2 2.7 23.9-87.3-4.4-164.7-46.2-216.5-109.8-9 15.5-14.2 33.6-14.2 52.8 0 36.4 18.5 68.6 46.7 87.4-17.2-0.5-33.4-5.3-47.6-13.1 0 0.4 0 0.9 0 1.3 0 50.9 36.2 93.4 84.3 103-8.8 2.4-18.1 3.7-27.7 3.7-6.8 0-13.3-0.7-19.8-1.9 13.4 41.7 52.2 72.1 98.1 73-36 28.2-81.2 45-130.5 45-8.5 0-16.8-0.5-25.1-1.5 46.6 29.9 101.8 47.2 161.1 47.2 193.2 0 298.9-160.1 298.9-298.9 0-4.6-0.1-9.1-0.3-13.6 20.5-14.7 38.3-33.2 52.4-54.3z"></path>
    </symbol>
    <symbol id="facebook" viewBox="0 0 512 512">
      <path d="M304 96h80v-96h-80c-61.757 0-112 50.243-112 112v48h-64v96h64v256h96v-256h80l16-96h-96v-48c0-8.673 7.327-16 16-16z"></path>
    </symbol>
    <symbol id="calendar" viewBox="0 0 45 47">
      <path d="M0.6,0 L6.4,0 L6.4,2.9 L12.2,2.9 L12.2,0 L32.6,0 L32.6,2.9 L38.4,2.9 L38.4,0 L44.2,0 L44.2,46.6 L0.4,46.6 L0.4,0 L0.6,0 Z M3.5,43.7 L41.4,43.7 L41.4,11.7 L3.5,11.7 L3.5,43.7 Z M32.7,26.2 L38.5,26.2 L38.5,32 L32.7,32 L32.7,26.2 L32.7,26.2 Z M32.7,17.5 L38.5,17.5 L38.5,23.3 L32.7,23.3 L32.7,17.5 Z M23.9,34.9 L29.7,34.9 L29.7,40.7 L23.9,40.7 L23.9,34.9 Z M23.9,26.2 L29.7,26.2 L29.7,32 L23.9,32 L23.9,26.2 Z M23.9,17.5 L29.7,17.5 L29.7,23.3 L23.9,23.3 L23.9,17.5 Z M15.2,34.9 L21,34.9 L21,40.7 L15.2,40.7 L15.2,34.9 Z M15.2,26.2 L21,26.2 L21,32 L15.2,32 L15.2,26.2 Z M15.2,17.5 L21,17.5 L21,23.3 L15.2,23.3 L15.2,17.5 Z M6.4,34.9 L12.2,34.9 L12.2,40.7 L6.4,40.7 L6.4,34.9 Z M6.4,26.2 L12.2,26.2 L12.2,32 L6.4,32 L6.4,26.2 Z" id="Shape" fill="#FF4B37" fill-rule="nonzero"></path>
    </symbol>
  </defs>
</svg>
