<svg style="position: absolute; width: 0; height: 0; overflow: hidden;" version="1.1"
  xmlns="http://www.w3.org/2000/svg"
  xmlns:xlink="http://www.w3.org/1999/xlink">
  <defs>
    <symbol id="minasdev-logo" viewBox="0 0 500 500">
      <path fill="#E64C3B" d="M.2-.4h499.8v499.8h-499.8z"/><path fill="#fff" d="M152.9 316.1v-38.1l-14.2 38.1h-8.6l-14.1-38.1v38.1h-19.2v-63.4h26.5l11.1 30.4 11.1-30.4h26.5v63.4h-19.1zM182.4 316.1v-63.4h19.2v63.4h-19.2zM254.4 316.1l-23.4-32.1v32.1h-19.2v-63.4h19.8l22 30v-30h19.2v63.4h-18.4zM325.6 316.1l-2.3-7.4h-22.8l-2.3 7.4h-21.8l23.4-63.4h24.2l23.4 63.4h-21.8zm-13.7-44.6l-6.3 20.4h12.5l-6.2-20.4zM349.3 307.2l10-14.3c4.8 4.6 11.9 8.2 20.4 8.2 3.6 0 7-1 7-3.4 0-6.1-35.4.1-35.4-24.9 0-10.7 8.9-21 26.3-21 10.4 0 19.7 2.9 26.9 8.8l-10.3 13.6c-5.5-4.2-12.6-6.3-18.6-6.3-3.8 0-4.8 1.2-4.8 2.9 0 6 35.3.9 35.3 24.4 0 14-10.4 22.1-27.4 22.1-13.4 0-22.6-4-29.4-10.1zM94.5 404.6v-63.4h28.3c20 0 34.8 11.4 34.8 31.7 0 20.2-14.8 31.7-34.7 31.7h-28.4zm43.6-31.8c0-8.6-4.9-14.9-15.2-14.9h-9.2v29.9h9.1c9.6.1 15.3-7 15.3-15zM164.4 404.6v-63.4h48.1v16.7h-28.9v6.3h28.2v16.7h-28.2v6.9h28.9v16.7h-48.1zM241.2 404.6l-23.4-63.4h21.8l13.7 42.7 13.7-42.7h21.8l-23.4 63.4h-24.2zM97.5 165.2v-71.5h14.3v3.5h-10.7v64.5h10.7v3.5h-14.3zM115.9 147.8c0-1.1 1-2.1 2.1-2.1s2.1 1 2.1 2.1-1 2.1-2.1 2.1-2.1-1-2.1-2.1zM123 142.3c0-4.2 2.8-7.6 7.4-7.6 4.6 0 7.4 3.4 7.4 7.6 0 4.1-2.8 7.6-7.4 7.6-4.6 0-7.4-3.4-7.4-7.6zm11.6 0c0-2.5-1.5-4.8-4.2-4.8s-4.2 2.2-4.2 4.8c0 2.6 1.5 4.8 4.2 4.8 2.8 0 4.2-2.2 4.2-4.8zM141.5 149.6v-14.5h3.1v2.1c1.1-1.4 2.8-2.5 4.7-2.5v3.1c-.3-.1-.6-.1-1-.1-1.3 0-3.1.9-3.7 1.9v9.9h-3.1zM152 153.3l1.5-2.3c1.2 1.3 2.7 1.9 4.6 1.9 2.1 0 4.3-1 4.3-4v-1.6c-1.1 1.5-2.8 2.4-4.6 2.4-3.7 0-6.4-2.7-6.4-7.4s2.7-7.4 6.4-7.4c1.8 0 3.5.8 4.6 2.4v-2h3.1v13.7c0 5.2-3.9 6.6-7.4 6.6-2.4-.1-4.3-.7-6.1-2.3zm10.4-8.4v-5.4c-.7-1-2.2-1.9-3.7-1.9-2.5 0-4.1 1.9-4.1 4.6 0 2.8 1.6 4.6 4.1 4.6 1.5 0 3-.9 3.7-1.9zM169.4 165.2v-3.5h10.7v-64.5h-10.7v-3.5h14.3v71.6h-14.3z"/>
    </symbol>
    <symbol id="proximos-eventos" viewBox="0 0 338 194">
      <path d="M317.9 67.7c-2.6.3-3.3 1.2-3.3 2.3-.1 4.1 23.6-2.2 23.4 13.9-.2 9.5-7.2 15.8-18.6 17.1-9.1 1-15.2-1-19.6-4.6l6.9-10.5c3.1 2.7 7.9 4.6 13.6 4 2.4-.3 4.7-1.2 4.8-2.9.1-4.1-23.7 2.8-23.4-14.2.1-7.3 6.2-15 17.9-16.3 6.9-.8 13.2.5 17.9 3.9l-7.1 10c-3.7-2.3-8.5-3.1-12.5-2.7zm-42.9 38.5c-13.1 1.5-23.1-6.4-22.9-19.6.2-13.2 10.5-23.5 23.7-25 13.1-1.5 23.1 6.4 22.9 19.6-.3 13.2-10.6 23.5-23.7 25zm.6-33.1c-6.2.7-10.3 6-10.4 12-.1 6 3.8 10.3 10 9.6 6.2-.7 10.3-6 10.4-12 .1-6-3.9-10.3-10-9.6zm-1.7 69.7c-.2 13.2-10.5 23.5-23.7 25-13.1 1.5-23.1-6.4-22.9-19.6.2-13.2 10.5-23.5 23.7-25 13.2-1.6 23.1 6.3 22.9 19.6zm-23.1-8.1c-6.2.7-10.3 6-10.4 12-.1 6 3.8 10.3 10 9.6 6.2-.7 10.3-6 10.4-12 .2-6-3.8-10.4-10-9.6zm-16.6-24.6l.5-25.9-10 27-5.7.7-9-24.8-.5 25.9-12.9 1.5.8-43.1 17.8-2.1 7.1 19.8 7.8-21.5 17.8-2.1-.8 43.1-12.9 1.5zm-86.4-110.1h5.8v2.9h5.8v-2.9h20.4v2.9h5.8v-2.9h5.8v46.6h-43.8v-46.6zm2.9 43.7h37.9v-32h-37.9v32zm29.2-17.5h5.8v5.8h-5.8v-5.8zm0-8.7h5.8v5.8h-5.8v-5.8zm-8.8 17.4h5.8v5.8h-5.8v-5.8zm0-8.7h5.8v5.8h-5.8v-5.8zm0-8.7h5.8v5.8h-5.8v-5.8zm-8.7 17.4h5.8v5.8h-5.8v-5.8zm0-8.7h5.8v5.8h-5.8v-5.8zm0-8.7h5.8v5.8h-5.8v-5.8zm-8.8 17.4h5.8v5.8h-5.8v-5.8zm0-8.7h5.8v5.8h-5.8v-5.8zm5.5 49.6l15.2-1.8-13.6 22.5 13.8 20.5-15.2 1.8-7.5-12.3-8 14.1-15.2 1.8 14.6-23.7-12.9-19.5 15.1-1.7 6.7 11.5 7-13.2zm-51.8 49.8c-13.1 1.5-23.1-6.4-22.9-19.6s10.6-23.5 23.7-25 23.1 6.4 22.9 19.6c-.3 13.2-10.6 23.5-23.7 25zm.6-33.1c-6.2.7-10.3 6-10.4 12-.1 6 3.8 10.3 10 9.6 6.2-.7 10.3-6 10.4-12 .1-6-3.8-10.3-10-9.6zm-5.9-14l7.8-10.2 9.9-1.1-10 10.4-7.7.9zm-20.8 49.3l-14.7 1.7-5.6-12.9-4.7.5-.2 13.6-12.9 1.5.8-43.1 22.7-2.6c9.9-1.2 15.2 5 15 13-.1 7.4-4.5 11.9-7.9 13.9l7.5 14.4zm-16.8-29.7l-7.8.9-.1 6.8 7.8-.9c2.2-.3 4.2-1.5 4.3-3.9 0-2.4-2-3.2-4.2-2.9zm-40.6 22.8l-9.8 1.1-.2 13.6-12.9 1.5.8-43.1 22.7-2.6c9.9-1.2 15.2 5 15 13-.1 8-5.6 15.4-15.6 16.5zm-1.3-18l-8.2.9-.1 6.8 8.2-.9c2.2-.2 3.9-1.5 3.9-3.8.1-2.3-1.6-3.2-3.8-3zm34.1 43.5l-.2 11.4-19.4 2.2-.1 4.3 18.9-2.2-.2 11.4-18.9 2.2-.1 4.7 19.4-2.2-.2 11.4-32.3 3.7.8-43.1 32.3-3.8zm24.4 26.1l9.7-30.1 14.6-1.7-16.4 44.9-16.2 1.9-14.9-41.3 14.6-1.7 8.6 28zm58.8-35.8l-.2 11.4-19.4 2.2-.1 4.3 18.9-2.2-.2 11.4-18.8 2.2-.1 4.7 19.4-2.2-.2 11.4-32.3 3.7.8-43.1 32.2-3.8zm19-2.2l14.4 18.7.4-20.4 12.9-1.5-.8 43.1-12.4 1.4-15.3-20-.4 21.8-12.9 1.5.8-43.1 13.3-1.5zm18.8-60.9l12.9-1.5-.8 43.1-12.9 1.5.8-43.1zm13.5 57.2l35.6-4.1-.2 11.4-11.4 1.3-.6 31.7-12.9 1.5.6-31.7-11.4 1.3.3-11.4zm104.4 20.8c2.4-.3 4.7-1.2 4.8-2.9.1-4.1-23.7 2.8-23.4-14.2.1-7.3 6.2-15 17.9-16.3 6.9-.8 13.2.5 17.9 3.9l-7.1 10c-3.6-2.4-8.4-3.3-12.4-2.8-2.5.3-3.3 1.2-3.3 2.3-.1 4.1 23.6-2.2 23.4 13.9-.2 9.5-7.2 15.8-18.6 17.1-9.1 1-15.2-1-19.6-4.6l6.9-10.5c3 2.8 7.7 4.7 13.5 4.1z"/>
    </symbol>
  </defs>
</svg>
